<svg xmlns="http://www.w3.org/2000/svg" xmlns:xlink="http://www.w3.org/1999/xlink" width="300" zoomAndPan="magnify" viewBox="0 0 224.87999 225" height="300" preserveAspectRatio="xMidYMid meet" version="1.0"><defs><g/><clipPath id="87535f6e01"><path d="M 67.464844 67.523438 L 157.414062 67.523438 L 157.414062 157.476562 L 67.464844 157.476562 Z M 67.464844 67.523438 " clip-rule="nonzero"/></clipPath><clipPath id="3e27fb11e1"><path d="M 0 0.0585938 L 224.761719 0.0585938 L 224.761719 224.9375 L 0 224.9375 Z M 0 0.0585938 " clip-rule="nonzero"/></clipPath><clipPath id="352ecf24e8"><path d="M 112.441406 0.0585938 C 50.339844 0.0585938 0 50.402344 0 112.5 C 0 174.597656 50.339844 224.941406 112.441406 224.941406 C 174.539062 224.941406 224.878906 174.597656 224.878906 112.5 C 224.878906 50.402344 174.539062 0.0585938 112.441406 0.0585938 Z M 112.441406 0.0585938 " clip-rule="nonzero"/></clipPath><linearGradient x1="0" gradientTransform="matrix(0.878437, 0, 0, 0.878437, 0, 0.060015)" y1="128" x2="255.863455" gradientUnits="userSpaceOnUse" y2="128" id="8dc6c91c5e"><stop stop-opacity="1" stop-color="rgb(9.399414%, 66.299438%, 59.999084%)" offset="0"/><stop stop-opacity="1" stop-color="rgb(9.47876%, 66.156006%, 60.005188%)" offset="0.0078125"/><stop stop-opacity="1" stop-color="rgb(9.637451%, 65.870667%, 60.017395%)" offset="0.015625"/><stop stop-opacity="1" stop-color="rgb(9.797668%, 65.586853%, 60.029602%)" offset="0.0234375"/><stop stop-opacity="1" stop-color="rgb(9.95636%, 65.301514%, 60.043335%)" offset="0.03125"/><stop stop-opacity="1" stop-color="rgb(10.115051%, 65.016174%, 60.055542%)" offset="0.0390625"/><stop stop-opacity="1" stop-color="rgb(10.275269%, 64.730835%, 60.067749%)" offset="0.046875"/><stop stop-opacity="1" stop-color="rgb(10.43396%, 64.445496%, 60.079956%)" offset="0.0546875"/><stop stop-opacity="1" stop-color="rgb(10.594177%, 64.161682%, 60.092163%)" offset="0.0625"/><stop stop-opacity="1" stop-color="rgb(10.752869%, 63.876343%, 60.105896%)" offset="0.0703125"/><stop stop-opacity="1" stop-color="rgb(10.91156%, 63.591003%, 60.118103%)" offset="0.078125"/><stop stop-opacity="1" stop-color="rgb(11.071777%, 63.305664%, 60.13031%)" offset="0.0859375"/><stop stop-opacity="1" stop-color="rgb(11.230469%, 63.021851%, 60.142517%)" offset="0.09375"/><stop stop-opacity="1" stop-color="rgb(11.390686%, 62.736511%, 60.154724%)" offset="0.101562"/><stop stop-opacity="1" stop-color="rgb(11.549377%, 62.451172%, 60.168457%)" offset="0.109375"/><stop stop-opacity="1" stop-color="rgb(11.708069%, 62.165833%, 60.180664%)" offset="0.117188"/><stop stop-opacity="1" stop-color="rgb(11.868286%, 61.880493%, 60.192871%)" offset="0.125"/><stop stop-opacity="1" stop-color="rgb(12.026978%, 61.59668%, 60.205078%)" offset="0.132812"/><stop stop-opacity="1" stop-color="rgb(12.187195%, 61.31134%, 60.217285%)" offset="0.140625"/><stop stop-opacity="1" stop-color="rgb(12.345886%, 61.026001%, 60.229492%)" offset="0.148438"/><stop stop-opacity="1" stop-color="rgb(12.504578%, 60.740662%, 60.243225%)" offset="0.15625"/><stop stop-opacity="1" stop-color="rgb(12.664795%, 60.455322%, 60.255432%)" offset="0.164062"/><stop stop-opacity="1" stop-color="rgb(12.823486%, 60.171509%, 60.267639%)" offset="0.171875"/><stop stop-opacity="1" stop-color="rgb(12.983704%, 59.886169%, 60.279846%)" offset="0.179688"/><stop stop-opacity="1" stop-color="rgb(13.142395%, 59.60083%, 60.292053%)" offset="0.1875"/><stop stop-opacity="1" stop-color="rgb(13.301086%, 59.315491%, 60.305786%)" offset="0.195312"/><stop stop-opacity="1" stop-color="rgb(13.461304%, 59.031677%, 60.317993%)" offset="0.203125"/><stop stop-opacity="1" stop-color="rgb(13.619995%, 58.746338%, 60.3302%)" offset="0.210938"/><stop stop-opacity="1" stop-color="rgb(13.778687%, 58.460999%, 60.342407%)" offset="0.21875"/><stop stop-opacity="1" stop-color="rgb(13.938904%, 58.175659%, 60.354614%)" offset="0.226562"/><stop stop-opacity="1" stop-color="rgb(14.097595%, 57.89032%, 60.368347%)" offset="0.234375"/><stop stop-opacity="1" stop-color="rgb(14.257812%, 57.606506%, 60.380554%)" offset="0.242188"/><stop stop-opacity="1" stop-color="rgb(14.416504%, 57.321167%, 60.392761%)" offset="0.25"/><stop stop-opacity="1" stop-color="rgb(14.575195%, 57.035828%, 60.404968%)" offset="0.257812"/><stop stop-opacity="1" stop-color="rgb(14.735413%, 56.750488%, 60.417175%)" offset="0.265625"/><stop stop-opacity="1" stop-color="rgb(14.894104%, 56.466675%, 60.429382%)" offset="0.273438"/><stop stop-opacity="1" stop-color="rgb(15.054321%, 56.181335%, 60.443115%)" offset="0.28125"/><stop stop-opacity="1" stop-color="rgb(15.213013%, 55.895996%, 60.455322%)" offset="0.289062"/><stop stop-opacity="1" stop-color="rgb(15.371704%, 55.610657%, 60.467529%)" offset="0.296875"/><stop stop-opacity="1" stop-color="rgb(15.531921%, 55.325317%, 60.479736%)" offset="0.304688"/><stop stop-opacity="1" stop-color="rgb(15.690613%, 55.041504%, 60.491943%)" offset="0.3125"/><stop stop-opacity="1" stop-color="rgb(15.85083%, 54.756165%, 60.505676%)" offset="0.320312"/><stop stop-opacity="1" stop-color="rgb(16.009521%, 54.470825%, 60.517883%)" offset="0.328125"/><stop stop-opacity="1" stop-color="rgb(16.168213%, 54.185486%, 60.53009%)" offset="0.335938"/><stop stop-opacity="1" stop-color="rgb(16.32843%, 53.901672%, 60.542297%)" offset="0.34375"/><stop stop-opacity="1" stop-color="rgb(16.487122%, 53.616333%, 60.554504%)" offset="0.351562"/><stop stop-opacity="1" stop-color="rgb(16.647339%, 53.330994%, 60.568237%)" offset="0.359375"/><stop stop-opacity="1" stop-color="rgb(16.80603%, 53.045654%, 60.580444%)" offset="0.367188"/><stop stop-opacity="1" stop-color="rgb(16.964722%, 52.760315%, 60.592651%)" offset="0.375"/><stop stop-opacity="1" stop-color="rgb(17.124939%, 52.476501%, 60.604858%)" offset="0.382812"/><stop stop-opacity="1" stop-color="rgb(17.28363%, 52.191162%, 60.617065%)" offset="0.390625"/><stop stop-opacity="1" stop-color="rgb(17.442322%, 51.905823%, 60.629272%)" offset="0.398438"/><stop stop-opacity="1" stop-color="rgb(17.602539%, 51.620483%, 60.643005%)" offset="0.40625"/><stop stop-opacity="1" stop-color="rgb(17.76123%, 51.33667%, 60.655212%)" offset="0.414062"/><stop stop-opacity="1" stop-color="rgb(17.921448%, 51.051331%, 60.667419%)" offset="0.421875"/><stop stop-opacity="1" stop-color="rgb(18.080139%, 50.765991%, 60.679626%)" offset="0.429688"/><stop stop-opacity="1" stop-color="rgb(18.238831%, 50.480652%, 60.691833%)" offset="0.4375"/><stop stop-opacity="1" stop-color="rgb(18.399048%, 50.195312%, 60.705566%)" offset="0.445312"/><stop stop-opacity="1" stop-color="rgb(18.557739%, 49.911499%, 60.717773%)" offset="0.453125"/><stop stop-opacity="1" stop-color="rgb(18.717957%, 49.62616%, 60.72998%)" offset="0.460938"/><stop stop-opacity="1" stop-color="rgb(18.876648%, 49.34082%, 60.742188%)" offset="0.46875"/><stop stop-opacity="1" stop-color="rgb(19.035339%, 49.055481%, 60.754395%)" offset="0.476562"/><stop stop-opacity="1" stop-color="rgb(19.195557%, 48.770142%, 60.768127%)" offset="0.484375"/><stop stop-opacity="1" stop-color="rgb(19.354248%, 48.486328%, 60.780334%)" offset="0.492188"/><stop stop-opacity="1" stop-color="rgb(19.514465%, 48.200989%, 60.792542%)" offset="0.5"/><stop stop-opacity="1" stop-color="rgb(19.673157%, 47.915649%, 60.804749%)" offset="0.507812"/><stop stop-opacity="1" stop-color="rgb(19.831848%, 47.63031%, 60.816956%)" offset="0.515625"/><stop stop-opacity="1" stop-color="rgb(19.992065%, 47.346497%, 60.829163%)" offset="0.523438"/><stop stop-opacity="1" stop-color="rgb(20.150757%, 47.061157%, 60.842896%)" offset="0.53125"/><stop stop-opacity="1" stop-color="rgb(20.310974%, 46.775818%, 60.855103%)" offset="0.539062"/><stop stop-opacity="1" stop-color="rgb(20.469666%, 46.490479%, 60.86731%)" offset="0.546875"/><stop stop-opacity="1" stop-color="rgb(20.628357%, 46.205139%, 60.879517%)" offset="0.554688"/><stop stop-opacity="1" stop-color="rgb(20.788574%, 45.921326%, 60.891724%)" offset="0.5625"/><stop stop-opacity="1" stop-color="rgb(20.947266%, 45.635986%, 60.905457%)" offset="0.570312"/><stop stop-opacity="1" stop-color="rgb(21.107483%, 45.350647%, 60.917664%)" offset="0.578125"/><stop stop-opacity="1" stop-color="rgb(21.266174%, 45.065308%, 60.929871%)" offset="0.585938"/><stop stop-opacity="1" stop-color="rgb(21.424866%, 44.781494%, 60.942078%)" offset="0.59375"/><stop stop-opacity="1" stop-color="rgb(21.585083%, 44.496155%, 60.954285%)" offset="0.601562"/><stop stop-opacity="1" stop-color="rgb(21.743774%, 44.210815%, 60.968018%)" offset="0.609375"/><stop stop-opacity="1" stop-color="rgb(21.902466%, 43.925476%, 60.980225%)" offset="0.617188"/><stop stop-opacity="1" stop-color="rgb(22.062683%, 43.640137%, 60.992432%)" offset="0.625"/><stop stop-opacity="1" stop-color="rgb(22.221375%, 43.356323%, 61.004639%)" offset="0.632812"/><stop stop-opacity="1" stop-color="rgb(22.381592%, 43.070984%, 61.016846%)" offset="0.640625"/><stop stop-opacity="1" stop-color="rgb(22.540283%, 42.785645%, 61.029053%)" offset="0.648438"/><stop stop-opacity="1" stop-color="rgb(22.698975%, 42.500305%, 61.042786%)" offset="0.65625"/><stop stop-opacity="1" stop-color="rgb(22.859192%, 42.216492%, 61.054993%)" offset="0.664062"/><stop stop-opacity="1" stop-color="rgb(23.017883%, 41.931152%, 61.0672%)" offset="0.671875"/><stop stop-opacity="1" stop-color="rgb(23.178101%, 41.645813%, 61.079407%)" offset="0.679688"/><stop stop-opacity="1" stop-color="rgb(23.336792%, 41.360474%, 61.091614%)" offset="0.6875"/><stop stop-opacity="1" stop-color="rgb(23.495483%, 41.075134%, 61.105347%)" offset="0.695312"/><stop stop-opacity="1" stop-color="rgb(23.655701%, 40.791321%, 61.117554%)" offset="0.703125"/><stop stop-opacity="1" stop-color="rgb(23.814392%, 40.505981%, 61.129761%)" offset="0.710938"/><stop stop-opacity="1" stop-color="rgb(23.974609%, 40.220642%, 61.141968%)" offset="0.71875"/><stop stop-opacity="1" stop-color="rgb(24.133301%, 39.935303%, 61.154175%)" offset="0.726562"/><stop stop-opacity="1" stop-color="rgb(24.291992%, 39.651489%, 61.167908%)" offset="0.734375"/><stop stop-opacity="1" stop-color="rgb(24.452209%, 39.36615%, 61.180115%)" offset="0.742188"/><stop stop-opacity="1" stop-color="rgb(24.610901%, 39.080811%, 61.192322%)" offset="0.75"/><stop stop-opacity="1" stop-color="rgb(24.771118%, 38.795471%, 61.204529%)" offset="0.757812"/><stop stop-opacity="1" stop-color="rgb(24.92981%, 38.510132%, 61.216736%)" offset="0.765625"/><stop stop-opacity="1" stop-color="rgb(25.088501%, 38.226318%, 61.228943%)" offset="0.773438"/><stop stop-opacity="1" stop-color="rgb(25.248718%, 37.940979%, 61.242676%)" offset="0.78125"/><stop stop-opacity="1" stop-color="rgb(25.40741%, 37.65564%, 61.254883%)" offset="0.789062"/><stop stop-opacity="1" stop-color="rgb(25.567627%, 37.3703%, 61.26709%)" offset="0.796875"/><stop stop-opacity="1" stop-color="rgb(25.726318%, 37.084961%, 61.279297%)" offset="0.804688"/><stop stop-opacity="1" stop-color="rgb(25.88501%, 36.801147%, 61.291504%)" offset="0.8125"/><stop stop-opacity="1" stop-color="rgb(26.045227%, 36.515808%, 61.305237%)" offset="0.820312"/><stop stop-opacity="1" stop-color="rgb(26.203918%, 36.230469%, 61.317444%)" offset="0.828125"/><stop stop-opacity="1" stop-color="rgb(26.36261%, 35.945129%, 61.329651%)" offset="0.835938"/><stop stop-opacity="1" stop-color="rgb(26.522827%, 35.661316%, 61.341858%)" offset="0.84375"/><stop stop-opacity="1" stop-color="rgb(26.681519%, 35.375977%, 61.354065%)" offset="0.851562"/><stop stop-opacity="1" stop-color="rgb(26.841736%, 35.090637%, 61.367798%)" offset="0.859375"/><stop stop-opacity="1" stop-color="rgb(27.000427%, 34.805298%, 61.380005%)" offset="0.867188"/><stop stop-opacity="1" stop-color="rgb(27.159119%, 34.519958%, 61.392212%)" offset="0.875"/><stop stop-opacity="1" stop-color="rgb(27.319336%, 34.236145%, 61.404419%)" offset="0.882812"/><stop stop-opacity="1" stop-color="rgb(27.478027%, 33.950806%, 61.416626%)" offset="0.890625"/><stop stop-opacity="1" stop-color="rgb(27.638245%, 33.665466%, 61.428833%)" offset="0.898438"/><stop stop-opacity="1" stop-color="rgb(27.796936%, 33.380127%, 61.442566%)" offset="0.90625"/><stop stop-opacity="1" stop-color="rgb(27.955627%, 33.096313%, 61.454773%)" offset="0.914062"/><stop stop-opacity="1" stop-color="rgb(28.115845%, 32.810974%, 61.46698%)" offset="0.921875"/><stop stop-opacity="1" stop-color="rgb(28.274536%, 32.525635%, 61.479187%)" offset="0.929688"/><stop stop-opacity="1" stop-color="rgb(28.434753%, 32.240295%, 61.491394%)" offset="0.9375"/><stop stop-opacity="1" stop-color="rgb(28.593445%, 31.954956%, 61.505127%)" offset="0.945312"/><stop stop-opacity="1" stop-color="rgb(28.752136%, 31.671143%, 61.517334%)" offset="0.953125"/><stop stop-opacity="1" stop-color="rgb(28.912354%, 31.385803%, 61.529541%)" offset="0.960938"/><stop stop-opacity="1" stop-color="rgb(29.071045%, 31.100464%, 61.541748%)" offset="0.96875"/><stop stop-opacity="1" stop-color="rgb(29.231262%, 30.815125%, 61.553955%)" offset="0.976562"/><stop stop-opacity="1" stop-color="rgb(29.389954%, 30.531311%, 61.567688%)" offset="0.984375"/><stop stop-opacity="1" stop-color="rgb(29.548645%, 30.245972%, 61.579895%)" offset="0.992188"/><stop stop-opacity="1" stop-color="rgb(29.708862%, 29.960632%, 61.592102%)" offset="1"/></linearGradient></defs><g clip-path="url(#87535f6e01)"><path fill="#ffffff" d="M 157.414062 112.5 C 157.414062 113.972656 157.34375 115.441406 157.199219 116.910156 C 157.054688 118.375 156.839844 119.828125 156.550781 121.273438 C 156.265625 122.71875 155.90625 124.144531 155.480469 125.554688 C 155.050781 126.964844 154.554688 128.351562 153.992188 129.710938 C 153.429688 131.074219 152.800781 132.402344 152.105469 133.703125 C 151.410156 135 150.65625 136.261719 149.835938 137.488281 C 149.019531 138.710938 148.140625 139.894531 147.207031 141.03125 C 146.273438 142.171875 145.285156 143.261719 144.242188 144.304688 C 143.203125 145.34375 142.109375 146.332031 140.972656 147.265625 C 139.832031 148.203125 138.652344 149.078125 137.425781 149.894531 C 136.203125 150.714844 134.941406 151.472656 133.640625 152.164062 C 132.34375 152.859375 131.011719 153.488281 129.652344 154.050781 C 128.289062 154.617188 126.90625 155.113281 125.496094 155.539062 C 124.085938 155.96875 122.660156 156.324219 121.214844 156.613281 C 119.769531 156.898438 118.3125 157.113281 116.847656 157.257812 C 115.382812 157.402344 113.914062 157.476562 112.441406 157.476562 C 110.96875 157.476562 109.496094 157.402344 108.03125 157.257812 C 106.566406 157.113281 105.109375 156.898438 103.664062 156.613281 C 102.222656 156.324219 100.792969 155.96875 99.382812 155.539062 C 97.972656 155.113281 96.589844 154.617188 95.226562 154.050781 C 93.867188 153.488281 92.539062 152.859375 91.238281 152.164062 C 89.9375 151.472656 88.675781 150.714844 87.453125 149.894531 C 86.226562 149.078125 85.046875 148.203125 83.90625 147.265625 C 82.769531 146.332031 81.679688 145.34375 80.636719 144.304688 C 79.59375 143.261719 78.609375 142.171875 77.671875 141.03125 C 76.738281 139.894531 75.863281 138.710938 75.042969 137.488281 C 74.226562 136.261719 73.46875 135 72.773438 133.703125 C 72.082031 132.402344 71.453125 131.074219 70.886719 129.710938 C 70.324219 128.351562 69.828125 126.964844 69.402344 125.554688 C 68.972656 124.144531 68.617188 122.71875 68.328125 121.273438 C 68.039062 119.828125 67.824219 118.375 67.679688 116.910156 C 67.535156 115.441406 67.464844 113.972656 67.464844 112.5 C 67.464844 111.027344 67.535156 109.558594 67.679688 108.089844 C 67.824219 106.625 68.039062 105.171875 68.328125 103.726562 C 68.617188 102.28125 68.972656 100.855469 69.402344 99.445312 C 69.828125 98.035156 70.324219 96.648438 70.886719 95.289062 C 71.453125 93.925781 72.082031 92.597656 72.773438 91.296875 C 73.46875 90 74.226562 88.738281 75.042969 87.511719 C 75.863281 86.289062 76.738281 85.105469 77.671875 83.96875 C 78.609375 82.828125 79.59375 81.738281 80.636719 80.695312 C 81.679688 79.65625 82.769531 78.667969 83.90625 77.734375 C 85.046875 76.796875 86.226562 75.921875 87.453125 75.105469 C 88.675781 74.285156 89.9375 73.527344 91.238281 72.835938 C 92.539062 72.140625 93.867188 71.511719 95.226562 70.949219 C 96.589844 70.382812 97.972656 69.886719 99.382812 69.460938 C 100.792969 69.03125 102.222656 68.675781 103.664062 68.386719 C 105.109375 68.101562 106.566406 67.886719 108.03125 67.742188 C 109.496094 67.597656 110.96875 67.523438 112.441406 67.523438 C 113.914062 67.523438 115.382812 67.597656 116.847656 67.742188 C 118.3125 67.886719 119.769531 68.101562 121.214844 68.386719 C 122.660156 68.675781 124.085938 69.03125 125.496094 69.460938 C 126.90625 69.886719 128.289062 70.382812 129.652344 70.949219 C 131.011719 71.511719 132.34375 72.140625 133.640625 72.835938 C 134.941406 73.527344 136.203125 74.285156 137.425781 75.105469 C 138.652344 75.921875 139.832031 76.796875 140.972656 77.734375 C 142.109375 78.667969 143.203125 79.65625 144.242188 80.695312 C 145.285156 81.738281 146.273438 82.828125 147.207031 83.96875 C 148.140625 85.105469 149.019531 86.289062 149.835938 87.511719 C 150.65625 88.738281 151.410156 90 152.105469 91.296875 C 152.800781 92.597656 153.429688 93.925781 153.992188 95.289062 C 154.554688 96.648438 155.050781 98.035156 155.480469 99.445312 C 155.90625 100.855469 156.265625 102.28125 156.550781 103.726562 C 156.839844 105.171875 157.054688 106.625 157.199219 108.089844 C 157.34375 109.558594 157.414062 111.027344 157.414062 112.5 Z M 157.414062 112.5 " fill-opacity="1" fill-rule="nonzero"/></g><g clip-path="url(#3e27fb11e1)"><g clip-path="url(#352ecf24e8)"><path fill="url(#8dc6c91c5e)" d="M 0 0.0585938 L 0 224.941406 L 224.761719 224.941406 L 224.761719 0.0585938 Z M 0 0.0585938 " fill-rule="nonzero"/></g></g><g fill="#fcfafa" fill-opacity="1"><g transform="translate(27.741777, 162.334182)"><g><path d="M 33.265625 0 L 13.453125 0 L 13.453125 -103.484375 L 36.875 -103.484375 L 78.4375 -36.8125 L 80.265625 -37.09375 L 80.265625 -103.484375 L 99.953125 -103.484375 L 99.953125 0 L 79 0 L 35.03125 -71.203125 L 33.265625 -70.921875 Z M 33.265625 0 "/></g></g></g><g fill="#fcfafa" fill-opacity="1"><g transform="translate(94.375327, 162.334182)"><g><path d="M 13.453125 0 L 13.453125 -103.484375 L 55 -103.484375 C 65.707031 -103.484375 73.785156 -101.015625 79.234375 -96.078125 C 84.691406 -91.148438 87.421875 -84.347656 87.421875 -75.671875 C 87.421875 -69.390625 85.828125 -64.242188 82.640625 -60.234375 C 79.453125 -56.222656 74.695312 -53.15625 68.375 -51.03125 L 68.375 -49.546875 C 71.632812 -48.128906 74.265625 -46.03125 76.265625 -43.25 C 78.273438 -40.46875 80.175781 -36.335938 81.96875 -30.859375 L 92.296875 0 L 71.28125 0 L 61.15625 -30.9375 C 60.113281 -34.050781 58.941406 -36.46875 57.640625 -38.1875 C 56.347656 -39.90625 54.695312 -41.15625 52.6875 -41.9375 C 50.6875 -42.71875 48.082031 -43.109375 44.875 -43.109375 L 33.90625 -43.109375 L 33.90625 0 Z M 52.515625 -59.3125 C 62.429688 -59.3125 67.390625 -63.9375 67.390625 -73.1875 C 67.390625 -82.582031 62.429688 -87.28125 52.515625 -87.28125 L 33.90625 -87.28125 L 33.90625 -59.3125 Z M 52.515625 -59.3125 "/></g></g></g></svg>