<svg xmlns="http://www.w3.org/2000/svg" xmlns:xlink="http://www.w3.org/1999/xlink" width="300" zoomAndPan="magnify" viewBox="0 0 224.87999 225" height="300" preserveAspectRatio="xMidYMid meet" version="1.0"><defs><g/><clipPath id="2174a1a870"><path d="M 67.464844 67.523438 L 157.414062 67.523438 L 157.414062 157.476562 L 67.464844 157.476562 Z M 67.464844 67.523438 " clip-rule="nonzero"/></clipPath><clipPath id="d8fafa0b60"><path d="M 0 0.0585938 L 224.761719 0.0585938 L 224.761719 224.9375 L 0 224.9375 Z M 0 0.0585938 " clip-rule="nonzero"/></clipPath><clipPath id="1c5f9eb29e"><path d="M 112.441406 0.0585938 C 50.339844 0.0585938 0 50.402344 0 112.5 C 0 174.597656 50.339844 224.941406 112.441406 224.941406 C 174.539062 224.941406 224.878906 174.597656 224.878906 112.5 C 224.878906 50.402344 174.539062 0.0585938 112.441406 0.0585938 Z M 112.441406 0.0585938 " clip-rule="nonzero"/></clipPath><linearGradient x1="0" gradientTransform="matrix(0.878437, 0, 0, 0.878437, 0, 0.060015)" y1="128" x2="255.863455" gradientUnits="userSpaceOnUse" y2="128" id="c902c5f1b3"><stop stop-opacity="1" stop-color="rgb(7.798767%, 72.198486%, 65.098572%)" offset="0"/><stop stop-opacity="1" stop-color="rgb(7.76825%, 72.073364%, 65.078735%)" offset="0.0078125"/><stop stop-opacity="1" stop-color="rgb(7.707214%, 71.821594%, 65.039062%)" offset="0.015625"/><stop stop-opacity="1" stop-color="rgb(7.646179%, 71.569824%, 64.99939%)" offset="0.0234375"/><stop stop-opacity="1" stop-color="rgb(7.58667%, 71.318054%, 64.959717%)" offset="0.03125"/><stop stop-opacity="1" stop-color="rgb(7.525635%, 71.06781%, 64.920044%)" offset="0.0390625"/><stop stop-opacity="1" stop-color="rgb(7.4646%, 70.81604%, 64.880371%)" offset="0.046875"/><stop stop-opacity="1" stop-color="rgb(7.403564%, 70.56427%, 64.840698%)" offset="0.0546875"/><stop stop-opacity="1" stop-color="rgb(7.342529%, 70.3125%, 64.801025%)" offset="0.0625"/><stop stop-opacity="1" stop-color="rgb(7.281494%, 70.062256%, 64.761353%)" offset="0.0703125"/><stop stop-opacity="1" stop-color="rgb(7.220459%, 69.810486%, 64.720154%)" offset="0.078125"/><stop stop-opacity="1" stop-color="rgb(7.159424%, 69.558716%, 64.680481%)" offset="0.0859375"/><stop stop-opacity="1" stop-color="rgb(7.098389%, 69.306946%, 64.640808%)" offset="0.09375"/><stop stop-opacity="1" stop-color="rgb(7.037354%, 69.055176%, 64.601135%)" offset="0.101562"/><stop stop-opacity="1" stop-color="rgb(6.976318%, 68.804932%, 64.561462%)" offset="0.109375"/><stop stop-opacity="1" stop-color="rgb(6.916809%, 68.553162%, 64.52179%)" offset="0.117188"/><stop stop-opacity="1" stop-color="rgb(6.855774%, 68.301392%, 64.482117%)" offset="0.125"/><stop stop-opacity="1" stop-color="rgb(6.794739%, 68.049622%, 64.442444%)" offset="0.132812"/><stop stop-opacity="1" stop-color="rgb(6.733704%, 67.799377%, 64.402771%)" offset="0.140625"/><stop stop-opacity="1" stop-color="rgb(6.672668%, 67.547607%, 64.363098%)" offset="0.148438"/><stop stop-opacity="1" stop-color="rgb(6.611633%, 67.295837%, 64.321899%)" offset="0.15625"/><stop stop-opacity="1" stop-color="rgb(6.550598%, 67.044067%, 64.282227%)" offset="0.164062"/><stop stop-opacity="1" stop-color="rgb(6.489563%, 66.792297%, 64.242554%)" offset="0.171875"/><stop stop-opacity="1" stop-color="rgb(6.428528%, 66.542053%, 64.202881%)" offset="0.179688"/><stop stop-opacity="1" stop-color="rgb(6.367493%, 66.290283%, 64.163208%)" offset="0.1875"/><stop stop-opacity="1" stop-color="rgb(6.306458%, 66.038513%, 64.123535%)" offset="0.195312"/><stop stop-opacity="1" stop-color="rgb(6.245422%, 65.786743%, 64.083862%)" offset="0.203125"/><stop stop-opacity="1" stop-color="rgb(6.185913%, 65.536499%, 64.044189%)" offset="0.210938"/><stop stop-opacity="1" stop-color="rgb(6.124878%, 65.284729%, 64.004517%)" offset="0.21875"/><stop stop-opacity="1" stop-color="rgb(6.063843%, 65.032959%, 63.964844%)" offset="0.226562"/><stop stop-opacity="1" stop-color="rgb(6.002808%, 64.781189%, 63.923645%)" offset="0.234375"/><stop stop-opacity="1" stop-color="rgb(5.941772%, 64.529419%, 63.883972%)" offset="0.242188"/><stop stop-opacity="1" stop-color="rgb(5.880737%, 64.279175%, 63.844299%)" offset="0.25"/><stop stop-opacity="1" stop-color="rgb(5.819702%, 64.027405%, 63.804626%)" offset="0.257812"/><stop stop-opacity="1" stop-color="rgb(5.758667%, 63.775635%, 63.764954%)" offset="0.265625"/><stop stop-opacity="1" stop-color="rgb(5.697632%, 63.523865%, 63.725281%)" offset="0.273438"/><stop stop-opacity="1" stop-color="rgb(5.636597%, 63.273621%, 63.685608%)" offset="0.28125"/><stop stop-opacity="1" stop-color="rgb(5.575562%, 63.021851%, 63.645935%)" offset="0.289062"/><stop stop-opacity="1" stop-color="rgb(5.514526%, 62.770081%, 63.606262%)" offset="0.296875"/><stop stop-opacity="1" stop-color="rgb(5.455017%, 62.518311%, 63.566589%)" offset="0.304688"/><stop stop-opacity="1" stop-color="rgb(5.393982%, 62.266541%, 63.526917%)" offset="0.3125"/><stop stop-opacity="1" stop-color="rgb(5.332947%, 62.016296%, 63.485718%)" offset="0.320312"/><stop stop-opacity="1" stop-color="rgb(5.271912%, 61.764526%, 63.446045%)" offset="0.328125"/><stop stop-opacity="1" stop-color="rgb(5.210876%, 61.512756%, 63.406372%)" offset="0.335938"/><stop stop-opacity="1" stop-color="rgb(5.149841%, 61.260986%, 63.366699%)" offset="0.34375"/><stop stop-opacity="1" stop-color="rgb(5.088806%, 61.010742%, 63.327026%)" offset="0.351562"/><stop stop-opacity="1" stop-color="rgb(5.027771%, 60.758972%, 63.287354%)" offset="0.359375"/><stop stop-opacity="1" stop-color="rgb(4.966736%, 60.507202%, 63.247681%)" offset="0.367188"/><stop stop-opacity="1" stop-color="rgb(4.905701%, 60.255432%, 63.208008%)" offset="0.375"/><stop stop-opacity="1" stop-color="rgb(4.844666%, 60.003662%, 63.168335%)" offset="0.382812"/><stop stop-opacity="1" stop-color="rgb(4.78363%, 59.753418%, 63.128662%)" offset="0.390625"/><stop stop-opacity="1" stop-color="rgb(4.724121%, 59.501648%, 63.087463%)" offset="0.398438"/><stop stop-opacity="1" stop-color="rgb(4.663086%, 59.249878%, 63.047791%)" offset="0.40625"/><stop stop-opacity="1" stop-color="rgb(4.602051%, 58.998108%, 63.008118%)" offset="0.414062"/><stop stop-opacity="1" stop-color="rgb(4.541016%, 58.747864%, 62.968445%)" offset="0.421875"/><stop stop-opacity="1" stop-color="rgb(4.47998%, 58.496094%, 62.928772%)" offset="0.429688"/><stop stop-opacity="1" stop-color="rgb(4.418945%, 58.244324%, 62.889099%)" offset="0.4375"/><stop stop-opacity="1" stop-color="rgb(4.35791%, 57.992554%, 62.849426%)" offset="0.445312"/><stop stop-opacity="1" stop-color="rgb(4.296875%, 57.740784%, 62.809753%)" offset="0.453125"/><stop stop-opacity="1" stop-color="rgb(4.23584%, 57.49054%, 62.770081%)" offset="0.460938"/><stop stop-opacity="1" stop-color="rgb(4.174805%, 57.23877%, 62.730408%)" offset="0.46875"/><stop stop-opacity="1" stop-color="rgb(4.11377%, 56.987%, 62.689209%)" offset="0.476562"/><stop stop-opacity="1" stop-color="rgb(4.05426%, 56.735229%, 62.649536%)" offset="0.484375"/><stop stop-opacity="1" stop-color="rgb(3.993225%, 56.484985%, 62.609863%)" offset="0.492188"/><stop stop-opacity="1" stop-color="rgb(3.93219%, 56.233215%, 62.57019%)" offset="0.5"/><stop stop-opacity="1" stop-color="rgb(3.871155%, 55.981445%, 62.530518%)" offset="0.507812"/><stop stop-opacity="1" stop-color="rgb(3.81012%, 55.729675%, 62.490845%)" offset="0.515625"/><stop stop-opacity="1" stop-color="rgb(3.749084%, 55.477905%, 62.451172%)" offset="0.523438"/><stop stop-opacity="1" stop-color="rgb(3.688049%, 55.227661%, 62.411499%)" offset="0.53125"/><stop stop-opacity="1" stop-color="rgb(3.627014%, 54.975891%, 62.371826%)" offset="0.539062"/><stop stop-opacity="1" stop-color="rgb(3.565979%, 54.724121%, 62.332153%)" offset="0.546875"/><stop stop-opacity="1" stop-color="rgb(3.504944%, 54.472351%, 62.290955%)" offset="0.554688"/><stop stop-opacity="1" stop-color="rgb(3.443909%, 54.222107%, 62.251282%)" offset="0.5625"/><stop stop-opacity="1" stop-color="rgb(3.382874%, 53.970337%, 62.211609%)" offset="0.570312"/><stop stop-opacity="1" stop-color="rgb(3.323364%, 53.718567%, 62.171936%)" offset="0.578125"/><stop stop-opacity="1" stop-color="rgb(3.262329%, 53.466797%, 62.132263%)" offset="0.585938"/><stop stop-opacity="1" stop-color="rgb(3.201294%, 53.216553%, 62.09259%)" offset="0.59375"/><stop stop-opacity="1" stop-color="rgb(3.140259%, 52.964783%, 62.052917%)" offset="0.601562"/><stop stop-opacity="1" stop-color="rgb(3.079224%, 52.713013%, 62.013245%)" offset="0.609375"/><stop stop-opacity="1" stop-color="rgb(3.018188%, 52.461243%, 61.973572%)" offset="0.617188"/><stop stop-opacity="1" stop-color="rgb(2.957153%, 52.209473%, 61.933899%)" offset="0.625"/><stop stop-opacity="1" stop-color="rgb(2.896118%, 51.959229%, 61.8927%)" offset="0.632812"/><stop stop-opacity="1" stop-color="rgb(2.835083%, 51.707458%, 61.853027%)" offset="0.640625"/><stop stop-opacity="1" stop-color="rgb(2.774048%, 51.455688%, 61.813354%)" offset="0.648438"/><stop stop-opacity="1" stop-color="rgb(2.713013%, 51.203918%, 61.773682%)" offset="0.65625"/><stop stop-opacity="1" stop-color="rgb(2.651978%, 50.953674%, 61.734009%)" offset="0.664062"/><stop stop-opacity="1" stop-color="rgb(2.592468%, 50.701904%, 61.694336%)" offset="0.671875"/><stop stop-opacity="1" stop-color="rgb(2.531433%, 50.450134%, 61.654663%)" offset="0.679688"/><stop stop-opacity="1" stop-color="rgb(2.470398%, 50.198364%, 61.61499%)" offset="0.6875"/><stop stop-opacity="1" stop-color="rgb(2.409363%, 49.946594%, 61.575317%)" offset="0.695312"/><stop stop-opacity="1" stop-color="rgb(2.348328%, 49.69635%, 61.535645%)" offset="0.703125"/><stop stop-opacity="1" stop-color="rgb(2.287292%, 49.44458%, 61.495972%)" offset="0.710938"/><stop stop-opacity="1" stop-color="rgb(2.226257%, 49.19281%, 61.454773%)" offset="0.71875"/><stop stop-opacity="1" stop-color="rgb(2.165222%, 48.94104%, 61.4151%)" offset="0.726562"/><stop stop-opacity="1" stop-color="rgb(2.104187%, 48.690796%, 61.375427%)" offset="0.734375"/><stop stop-opacity="1" stop-color="rgb(2.043152%, 48.439026%, 61.335754%)" offset="0.742188"/><stop stop-opacity="1" stop-color="rgb(1.982117%, 48.187256%, 61.296082%)" offset="0.75"/><stop stop-opacity="1" stop-color="rgb(1.921082%, 47.935486%, 61.256409%)" offset="0.757812"/><stop stop-opacity="1" stop-color="rgb(1.861572%, 47.683716%, 61.216736%)" offset="0.765625"/><stop stop-opacity="1" stop-color="rgb(1.800537%, 47.433472%, 61.177063%)" offset="0.773438"/><stop stop-opacity="1" stop-color="rgb(1.739502%, 47.181702%, 61.13739%)" offset="0.78125"/><stop stop-opacity="1" stop-color="rgb(1.678467%, 46.929932%, 61.097717%)" offset="0.789062"/><stop stop-opacity="1" stop-color="rgb(1.617432%, 46.678162%, 61.056519%)" offset="0.796875"/><stop stop-opacity="1" stop-color="rgb(1.556396%, 46.427917%, 61.016846%)" offset="0.804688"/><stop stop-opacity="1" stop-color="rgb(1.495361%, 46.176147%, 60.977173%)" offset="0.8125"/><stop stop-opacity="1" stop-color="rgb(1.434326%, 45.924377%, 60.9375%)" offset="0.820312"/><stop stop-opacity="1" stop-color="rgb(1.373291%, 45.672607%, 60.897827%)" offset="0.828125"/><stop stop-opacity="1" stop-color="rgb(1.312256%, 45.420837%, 60.858154%)" offset="0.835938"/><stop stop-opacity="1" stop-color="rgb(1.251221%, 45.170593%, 60.818481%)" offset="0.84375"/><stop stop-opacity="1" stop-color="rgb(1.191711%, 44.918823%, 60.778809%)" offset="0.851562"/><stop stop-opacity="1" stop-color="rgb(1.130676%, 44.667053%, 60.739136%)" offset="0.859375"/><stop stop-opacity="1" stop-color="rgb(1.069641%, 44.415283%, 60.699463%)" offset="0.867188"/><stop stop-opacity="1" stop-color="rgb(1.008606%, 44.165039%, 60.658264%)" offset="0.875"/><stop stop-opacity="1" stop-color="rgb(0.947571%, 43.913269%, 60.618591%)" offset="0.882812"/><stop stop-opacity="1" stop-color="rgb(0.886536%, 43.661499%, 60.578918%)" offset="0.890625"/><stop stop-opacity="1" stop-color="rgb(0.8255%, 43.409729%, 60.539246%)" offset="0.898438"/><stop stop-opacity="1" stop-color="rgb(0.764465%, 43.157959%, 60.499573%)" offset="0.90625"/><stop stop-opacity="1" stop-color="rgb(0.70343%, 42.907715%, 60.4599%)" offset="0.914062"/><stop stop-opacity="1" stop-color="rgb(0.642395%, 42.655945%, 60.420227%)" offset="0.921875"/><stop stop-opacity="1" stop-color="rgb(0.58136%, 42.404175%, 60.380554%)" offset="0.929688"/><stop stop-opacity="1" stop-color="rgb(0.520325%, 42.152405%, 60.340881%)" offset="0.9375"/><stop stop-opacity="1" stop-color="rgb(0.460815%, 41.902161%, 60.301208%)" offset="0.945312"/><stop stop-opacity="1" stop-color="rgb(0.39978%, 41.650391%, 60.26001%)" offset="0.953125"/><stop stop-opacity="1" stop-color="rgb(0.338745%, 41.398621%, 60.220337%)" offset="0.960938"/><stop stop-opacity="1" stop-color="rgb(0.27771%, 41.146851%, 60.180664%)" offset="0.96875"/><stop stop-opacity="1" stop-color="rgb(0.216675%, 40.895081%, 60.140991%)" offset="0.976562"/><stop stop-opacity="1" stop-color="rgb(0.15564%, 40.644836%, 60.101318%)" offset="0.984375"/><stop stop-opacity="1" stop-color="rgb(0.0946045%, 40.393066%, 60.061646%)" offset="0.992188"/><stop stop-opacity="1" stop-color="rgb(0.0335693%, 40.141296%, 60.021973%)" offset="1"/></linearGradient></defs><g clip-path="url(#2174a1a870)"><path fill="#ffffff" d="M 157.414062 112.5 C 157.414062 113.972656 157.34375 115.441406 157.199219 116.910156 C 157.054688 118.375 156.839844 119.828125 156.550781 121.273438 C 156.265625 122.71875 155.90625 124.144531 155.480469 125.554688 C 155.050781 126.964844 154.554688 128.351562 153.992188 129.710938 C 153.429688 131.074219 152.800781 132.402344 152.105469 133.703125 C 151.410156 135 150.65625 136.261719 149.835938 137.488281 C 149.019531 138.710938 148.140625 139.894531 147.207031 141.03125 C 146.273438 142.171875 145.285156 143.261719 144.242188 144.304688 C 143.203125 145.34375 142.109375 146.332031 140.972656 147.265625 C 139.832031 148.203125 138.652344 149.078125 137.425781 149.894531 C 136.203125 150.714844 134.941406 151.472656 133.640625 152.164062 C 132.34375 152.859375 131.011719 153.488281 129.652344 154.050781 C 128.289062 154.617188 126.90625 155.113281 125.496094 155.539062 C 124.085938 155.96875 122.660156 156.324219 121.214844 156.613281 C 119.769531 156.898438 118.3125 157.113281 116.847656 157.257812 C 115.382812 157.402344 113.914062 157.476562 112.441406 157.476562 C 110.96875 157.476562 109.496094 157.402344 108.03125 157.257812 C 106.566406 157.113281 105.109375 156.898438 103.664062 156.613281 C 102.222656 156.324219 100.792969 155.96875 99.382812 155.539062 C 97.972656 155.113281 96.589844 154.617188 95.226562 154.050781 C 93.867188 153.488281 92.539062 152.859375 91.238281 152.164062 C 89.9375 151.472656 88.675781 150.714844 87.453125 149.894531 C 86.226562 149.078125 85.046875 148.203125 83.90625 147.265625 C 82.769531 146.332031 81.679688 145.34375 80.636719 144.304688 C 79.59375 143.261719 78.609375 142.171875 77.671875 141.03125 C 76.738281 139.894531 75.863281 138.710938 75.042969 137.488281 C 74.226562 136.261719 73.46875 135 72.773438 133.703125 C 72.082031 132.402344 71.453125 131.074219 70.886719 129.710938 C 70.324219 128.351562 69.828125 126.964844 69.402344 125.554688 C 68.972656 124.144531 68.617188 122.71875 68.328125 121.273438 C 68.039062 119.828125 67.824219 118.375 67.679688 116.910156 C 67.535156 115.441406 67.464844 113.972656 67.464844 112.5 C 67.464844 111.027344 67.535156 109.558594 67.679688 108.089844 C 67.824219 106.625 68.039062 105.171875 68.328125 103.726562 C 68.617188 102.28125 68.972656 100.855469 69.402344 99.445312 C 69.828125 98.035156 70.324219 96.648438 70.886719 95.289062 C 71.453125 93.925781 72.082031 92.597656 72.773438 91.296875 C 73.46875 90 74.226562 88.738281 75.042969 87.511719 C 75.863281 86.289062 76.738281 85.105469 77.671875 83.96875 C 78.609375 82.828125 79.59375 81.738281 80.636719 80.695312 C 81.679688 79.65625 82.769531 78.667969 83.90625 77.734375 C 85.046875 76.796875 86.226562 75.921875 87.453125 75.105469 C 88.675781 74.285156 89.9375 73.527344 91.238281 72.835938 C 92.539062 72.140625 93.867188 71.511719 95.226562 70.949219 C 96.589844 70.382812 97.972656 69.886719 99.382812 69.460938 C 100.792969 69.03125 102.222656 68.675781 103.664062 68.386719 C 105.109375 68.101562 106.566406 67.886719 108.03125 67.742188 C 109.496094 67.597656 110.96875 67.523438 112.441406 67.523438 C 113.914062 67.523438 115.382812 67.597656 116.847656 67.742188 C 118.3125 67.886719 119.769531 68.101562 121.214844 68.386719 C 122.660156 68.675781 124.085938 69.03125 125.496094 69.460938 C 126.90625 69.886719 128.289062 70.382812 129.652344 70.949219 C 131.011719 71.511719 132.34375 72.140625 133.640625 72.835938 C 134.941406 73.527344 136.203125 74.285156 137.425781 75.105469 C 138.652344 75.921875 139.832031 76.796875 140.972656 77.734375 C 142.109375 78.667969 143.203125 79.65625 144.242188 80.695312 C 145.285156 81.738281 146.273438 82.828125 147.207031 83.96875 C 148.140625 85.105469 149.019531 86.289062 149.835938 87.511719 C 150.65625 88.738281 151.410156 90 152.105469 91.296875 C 152.800781 92.597656 153.429688 93.925781 153.992188 95.289062 C 154.554688 96.648438 155.050781 98.035156 155.480469 99.445312 C 155.90625 100.855469 156.265625 102.28125 156.550781 103.726562 C 156.839844 105.171875 157.054688 106.625 157.199219 108.089844 C 157.34375 109.558594 157.414062 111.027344 157.414062 112.5 Z M 157.414062 112.5 " fill-opacity="1" fill-rule="nonzero"/></g><g clip-path="url(#d8fafa0b60)"><g clip-path="url(#1c5f9eb29e)"><path fill="url(#c902c5f1b3)" d="M 0 0.0585938 L 0 224.941406 L 224.761719 224.941406 L 224.761719 0.0585938 Z M 0 0.0585938 " fill-rule="nonzero"/></g></g><g fill="#fcfafa" fill-opacity="1"><g transform="translate(35.823235, 157.569618)"><g><path d="M 30.59375 0 L 12.359375 0 L 12.359375 -95.15625 L 33.90625 -95.15625 L 72.109375 -33.84375 L 73.8125 -34.109375 L 73.8125 -95.15625 L 91.90625 -95.15625 L 91.90625 0 L 72.640625 0 L 32.21875 -65.484375 L 30.59375 -65.21875 Z M 30.59375 0 "/></g></g></g><g fill="#fcfafa" fill-opacity="1"><g transform="translate(97.088366, 157.569618)"><g><path d="M 12.359375 0 L 12.359375 -95.15625 L 50.578125 -95.15625 C 60.421875 -95.15625 67.847656 -92.882812 72.859375 -88.34375 C 77.867188 -83.8125 80.375 -77.554688 80.375 -69.578125 C 80.375 -63.804688 78.910156 -59.078125 75.984375 -55.390625 C 73.054688 -51.703125 68.6875 -48.878906 62.875 -46.921875 L 62.875 -45.5625 C 65.863281 -44.257812 68.28125 -42.328125 70.125 -39.765625 C 71.96875 -37.203125 73.71875 -33.40625 75.375 -28.375 L 84.875 0 L 65.546875 0 L 56.234375 -28.4375 C 55.273438 -31.300781 54.195312 -33.523438 53 -35.109375 C 51.8125 -36.691406 50.296875 -37.84375 48.453125 -38.5625 C 46.609375 -39.28125 44.210938 -39.640625 41.265625 -39.640625 L 31.171875 -39.640625 L 31.171875 0 Z M 48.296875 -54.546875 C 57.410156 -54.546875 61.96875 -58.796875 61.96875 -67.296875 C 61.96875 -75.929688 57.410156 -80.25 48.296875 -80.25 L 31.171875 -80.25 L 31.171875 -54.546875 Z M 48.296875 -54.546875 "/></g></g></g></svg>